<!DOCTYPE svg PUBLIC "-//W3C//DTD SVG 1.1//EN" "http://www.w3.org/Graphics/SVG/1.1/DTD/svg11.dtd">
<!-- Uploaded to: SVG Repo, www.svgrepo.com, Transformed by: SVG Repo Mixer Tools -->
<svg width="800px" height="800px" viewBox="0 0 24 24" xmlns="http://www.w3.org/2000/svg" fill="none">
<g id="SVGRepo_bgCarrier" stroke-width="0"/>
<g id="SVGRepo_tracerCarrier" stroke-linecap="round" stroke-linejoin="round"/>
<g id="SVGRepo_iconCarrier">
<path stroke="#c75c5cd2" stroke-linecap="round" stroke-linejoin="round" stroke-width="0.504" d="M17 19H4a1 1 0 0 1-1-1V6a1 1 0 0 1 1-1h13m0 14h3a1 1 0 0 0 1-1V6a1 1 0 0 0-1-1h-3m0 14v-1m0-13v1m0 3.001V9m0 3.001V12m0 3.001V15"/>
<path stroke="#c75c5cd2" stroke-linecap="round" stroke-linejoin="round" stroke-width="0.504" d="m7 13 2 2 4-6"/>
</g>
</svg>