<!DOCTYPE svg PUBLIC "-//W3C//DTD SVG 1.1//EN" "http://www.w3.org/Graphics/SVG/1.1/DTD/svg11.dtd">
<!-- Uploaded to: SVG Repo, www.svgrepo.com, Transformed by: SVG Repo Mixer Tools -->
<svg width="800px" height="800px" viewBox="-2.4 -2.4 28.80 28.80" id="Layer_1" data-name="Layer 1" xmlns="http://www.w3.org/2000/svg" fill="#000000">
<g id="SVGRepo_bgCarrier" stroke-width="0"/>
<g id="SVGRepo_tracerCarrier" stroke-linecap="round" stroke-linejoin="round" stroke="#CCCCCC" stroke-width="4.8">
<defs>
<style>.cls-1{fill:none;stroke:#c75c5cd2;stroke-miterlimit:10;stroke-width:0.648;}</style>
</defs>
<rect class="cls-1" x="2.45" y="2.45" width="19.09" height="11.45"/>
<line class="cls-1" x1="6.27" y1="5.32" x2="6.27" y2="11.05"/>
<line class="cls-1" x1="10.09" y1="5.32" x2="10.09" y2="11.05"/>
<line class="cls-1" x1="13.91" y1="5.32" x2="13.91" y2="11.05"/>
<line class="cls-1" x1="17.73" y1="5.32" x2="17.73" y2="11.05"/>
<circle class="cls-1" cx="3.41" cy="19.64" r="1.91"/>
<circle class="cls-1" cx="8.18" cy="19.64" r="1.91"/>
<circle class="cls-1" cx="15.82" cy="19.64" r="1.91"/>
<circle class="cls-1" cx="20.59" cy="19.64" r="1.91"/>
<rect class="cls-1" x="1.5" y="13.91" width="21" height="3.82"/>
</g>
<g id="SVGRepo_iconCarrier">
<defs>
<style>.cls-1{fill:none;stroke:#c75c5cd2;stroke-miterlimit:10;stroke-width:0.648;}</style>
</defs>
<rect class="cls-1" x="2.45" y="2.45" width="19.09" height="11.45"/>
<line class="cls-1" x1="6.27" y1="5.32" x2="6.27" y2="11.05"/>
<line class="cls-1" x1="10.09" y1="5.32" x2="10.09" y2="11.05"/>
<line class="cls-1" x1="13.91" y1="5.32" x2="13.91" y2="11.05"/>
<line class="cls-1" x1="17.73" y1="5.32" x2="17.73" y2="11.05"/>
<circle class="cls-1" cx="3.41" cy="19.64" r="1.91"/>
<circle class="cls-1" cx="8.18" cy="19.64" r="1.91"/>
<circle class="cls-1" cx="15.82" cy="19.64" r="1.91"/>
<circle class="cls-1" cx="20.59" cy="19.64" r="1.91"/>
<rect class="cls-1" x="1.5" y="13.91" width="21" height="3.82"/>
</g>
</svg>