<!DOCTYPE svg PUBLIC "-//W3C//DTD SVG 1.1//EN" "http://www.w3.org/Graphics/SVG/1.1/DTD/svg11.dtd">
<!-- Uploaded to: SVG Repo, www.svgrepo.com, Transformed by: SVG Repo Mixer Tools -->
<svg width="175px" height="175px" viewBox="0 0 22 22" id="meteor-icon-kit__regular-register" fill="none" xmlns="http://www.w3.org/2000/svg" stroke="#000000" stroke-width="0.00022">
<g id="SVGRepo_bgCarrier" stroke-width="0"/>
<g id="SVGRepo_tracerCarrier" stroke-linecap="round" stroke-linejoin="round"/>
<g id="SVGRepo_iconCarrier">
<path fill-rule="evenodd" clip-rule="evenodd" d="M2.06155 16H19.9384L18.4384 10H3.56155L2.06155 16zM2 18V20H20V18H2zM5 8V6H3C2.44772 6 2 5.55228 2 5V1C2 0.44772 2.44772 0 3 0H13C13.5523 0 14 0.44772 14 1V5C14 5.55228 13.5523 6 13 6H11V8H19.2192C19.6781 8 20.0781 8.3123 20.1894 8.75746L22 16V21C22 21.5523 21.5523 22 21 22H1C0.44772 22 0 21.5523 0 21V16L1.81063 8.75746C1.92193 8.3123 2.32191 8 2.78078 8H5zM7 8H9V6H7V8zM12 4V2H4V4H12z" fill="#c75c5cc9"/>
</g>
</svg>